<mxfile host="Electron" modified="2023-04-12T03:45:38.814Z" agent="Mozilla/5.0 (Macintosh; Intel Mac OS X 10_15_7) AppleWebKit/537.36 (KHTML, like Gecko) draw.io/21.1.2 Chrome/106.0.5249.199 Electron/21.4.3 Safari/537.36" etag="0sXX6kp2uPBWi6TDH-n-" version="21.1.2" type="device">
  <diagram name="Page-1" id="Mbi5kHLcVnycgNNjsHrm">
    <mxGraphModel dx="1434" dy="1293" grid="1" gridSize="10" guides="1" tooltips="1" connect="1" arrows="1" fold="1" page="1" pageScale="1" pageWidth="1169" pageHeight="827" math="0" shadow="0">
      <root>
        <mxCell id="0" />
        <mxCell id="1" parent="0" />
        <mxCell id="lVJ_rQDWjbkKH3VNCJsl-9" value="Region" style="sketch=0;outlineConnect=0;gradientColor=none;html=1;whiteSpace=wrap;fontSize=12;fontStyle=0;shape=mxgraph.aws4.group;grIcon=mxgraph.aws4.group_region;strokeColor=#879196;fillColor=none;verticalAlign=top;align=left;spacingLeft=30;fontColor=#879196;dashed=1;" vertex="1" parent="1">
          <mxGeometry width="520" height="360" as="geometry" />
        </mxCell>
        <mxCell id="lVJ_rQDWjbkKH3VNCJsl-10" value="Mobile client" style="sketch=0;outlineConnect=0;fontColor=#232F3E;gradientColor=none;strokeColor=#232F3E;fillColor=#ffffff;dashed=0;verticalLabelPosition=bottom;verticalAlign=top;align=center;html=1;fontSize=12;fontStyle=0;aspect=fixed;shape=mxgraph.aws4.resourceIcon;resIcon=mxgraph.aws4.mobile_client;" vertex="1" parent="1">
          <mxGeometry x="890" y="250" width="60" height="60" as="geometry" />
        </mxCell>
        <mxCell id="lVJ_rQDWjbkKH3VNCJsl-11" value="Internet alt1" style="sketch=0;outlineConnect=0;fontColor=#232F3E;gradientColor=none;strokeColor=#232F3E;fillColor=#ffffff;dashed=0;verticalLabelPosition=bottom;verticalAlign=top;align=center;html=1;fontSize=12;fontStyle=0;aspect=fixed;shape=mxgraph.aws4.resourceIcon;resIcon=mxgraph.aws4.internet_alt1;" vertex="1" parent="1">
          <mxGeometry x="670" y="120.5" width="60" height="60" as="geometry" />
        </mxCell>
        <mxCell id="lVJ_rQDWjbkKH3VNCJsl-12" value="notification" style="sketch=0;outlineConnect=0;gradientColor=none;fontColor=#545B64;strokeColor=none;fillColor=#879196;dashed=0;verticalLabelPosition=bottom;verticalAlign=top;align=center;html=1;fontSize=12;fontStyle=0;aspect=fixed;shape=mxgraph.aws4.illustration_notification;pointerEvents=1" vertex="1" parent="1">
          <mxGeometry x="870" y="110" width="100" height="81" as="geometry" />
        </mxCell>
        <mxCell id="lVJ_rQDWjbkKH3VNCJsl-13" value="Queue" style="sketch=0;outlineConnect=0;fontColor=#232F3E;gradientColor=none;strokeColor=#232F3E;fillColor=#ffffff;dashed=0;verticalLabelPosition=bottom;verticalAlign=top;align=center;html=1;fontSize=12;fontStyle=0;aspect=fixed;shape=mxgraph.aws4.resourceIcon;resIcon=mxgraph.aws4.queue;" vertex="1" parent="1">
          <mxGeometry x="300" y="120.5" width="60" height="60" as="geometry" />
        </mxCell>
        <mxCell id="lVJ_rQDWjbkKH3VNCJsl-14" value="Message" style="sketch=0;outlineConnect=0;fontColor=#232F3E;gradientColor=none;strokeColor=#232F3E;fillColor=#ffffff;dashed=0;verticalLabelPosition=bottom;verticalAlign=top;align=center;html=1;fontSize=12;fontStyle=0;aspect=fixed;shape=mxgraph.aws4.resourceIcon;resIcon=mxgraph.aws4.message;" vertex="1" parent="1">
          <mxGeometry x="190" y="120.5" width="60" height="60" as="geometry" />
        </mxCell>
        <mxCell id="lVJ_rQDWjbkKH3VNCJsl-15" value="Topic" style="sketch=0;outlineConnect=0;fontColor=#232F3E;gradientColor=none;strokeColor=#232F3E;fillColor=#ffffff;dashed=0;verticalLabelPosition=bottom;verticalAlign=top;align=center;html=1;fontSize=12;fontStyle=0;aspect=fixed;shape=mxgraph.aws4.resourceIcon;resIcon=mxgraph.aws4.topic;" vertex="1" parent="1">
          <mxGeometry x="390" y="120.5" width="60" height="60" as="geometry" />
        </mxCell>
        <mxCell id="lVJ_rQDWjbkKH3VNCJsl-16" value="Amazon Pinpoint" style="sketch=0;outlineConnect=0;fontColor=#232F3E;gradientColor=none;strokeColor=#ffffff;fillColor=#232F3E;dashed=0;verticalLabelPosition=middle;verticalAlign=bottom;align=center;html=1;whiteSpace=wrap;fontSize=10;fontStyle=1;spacing=3;shape=mxgraph.aws4.productIcon;prIcon=mxgraph.aws4.pinpoint;" vertex="1" parent="1">
          <mxGeometry x="480" y="110" width="80" height="110" as="geometry" />
        </mxCell>
      </root>
    </mxGraphModel>
  </diagram>
</mxfile>
